<?xml version="1.0" encoding="utf-8"?>
<?xml-stylesheet type="text/xsl" href="rss1.xsl"?>
<rss version="2.0" xmlns:atom="http://www.w3.org/2005/Atom" xmlns:content="http://purl.org/rss/1.0/modules/content/" xmlns:dc="http://purl.org/dc/elements/1.1/" xmlns:media="http://search.yahoo.com/mrss/">
<channel>
 <title>Getty</title>
 <link>http://www.gettyimg.com/</link>
 <atom:link href="http://www.gettyimg.com/" rel="self" type="application/rss+xml" />

 
                <item>
                <title><![CDATA[【Cinema Center】SERIES - Once Upon a Time S02 BrRip 900p 6ch hevc - RGO]]></title>
                <link><![CDATA[https://sharemania.us/threads/once-upon-a-time-s02-brrip-900p-6ch-hevc-rgo.220067/]]></link>
                <description><![CDATA[<article>
<blockquote class="messageText SelectQuoteContainer ugc baseHtml">
<div style="text-align: center"><img src="https://images2.imgbox.com/6b/76/G3zGDQgj_o.jpg" class="bbCodeImage LbImage" alt="[​IMG]" data-url="https://images2.imgbox.com/6b/76/G3zGDQgj_o.jpg" style=""><br>
<span style="text-decoration: underline"><span style="font-size: 22px">Ripped by me</span></span>​</div><span style="font-size: 18px"><br>
Source: Once Upon a Time S02 BDRip 1080p DTS | <b>75 GB</b><br>
<br>
Info:</span><br>
<span style="font-size: 15px"><span style="font-size: 15px">File Size: <b>15.4 GB</b><br>
Video: hevc, 10 bits, 1600x900<br>
Audio 1: english, he-aac, 48000 Hz, 5.1, 185 kb/s<br>
Audio 2: português-br, aac lc, 48000 Hz, stereo, 125 kb/s<br>
Encoding Settings: crf=23, slow, unsharp=medium</span></span><br>
<br>
<span style="font-size: 18px">Download:</span><br>
<div class="bbCodeBlock bbCodeVfcHH HiddenContent">
<div class="attribution type">Hidden Content:</div>
<blockquote>You must either reply or click 'Like' to see the hidden information contained here.</blockquote>
</div><span style="font-size: 18px">mirrors .zip:</span><br>
<div class="bbCodeBlock bbCodeVfcHH HiddenContent">
<div class="attribution type">Hidden Content:</div>
<blockquote>You must either reply or click 'Like' to see the hidden information contained here.</blockquote>
</div><span style="font-size: 18px">
<div class="bbCodeBlock bbCodeVfcHH HiddenContent">
<div class="attribution type">Hidden Content:</div>
<blockquote>You must either reply or click 'Like' to see the hidden information contained here.</blockquote>
</div></span><br>
<br>
<div class="ToggleTriggerAnchor bbCodeSpoilerContainer">
<button type="button" class="button bbCodeSpoilerButton ToggleTrigger Tooltip JsOnly" data-target="> .SpoilerTarget"><span>Spoiler: <span class="SpoilerTitle">why 900p???</span></span></button>
<div class="SpoilerTarget bbCodeSpoilerText">I didn't notice any drastic changes in quality and I saved 200MB per episode.<br>
It met my needs as I watch on a 1080p monitor.<br>
I decided to post the result here, in case anyone is looking for the same as me.</div>
</div>
<div class="messageTextEndMarker">&nbsp;</div>
</blockquote>
</article>]]></description>
                <author><![CDATA[rodriggam]]></author>
                </item>

                
                <item>
                <title><![CDATA[【Albums (lossy)】PACK - The Cheetah Girls [The Complete Discography from "CHEETAH'S" with unreleased songs and albuns]]]></title>
                <link><![CDATA[https://sharemania.us/threads/the-cheetah-girls-the-complete-discography-from-cheetahs-with-unreleased-songs-and-albuns.220069/]]></link>
                <description><![CDATA[<article>
<blockquote class="messageText SelectQuoteContainer ugc baseHtml">
I give to are you, the complete discograhy from that is to me, the best girlband from history and the best moments from the Disney Channel, best best years! Can wanna remember? <br>
<img src="https://64.media.tumblr.com/e2d87a9b5e872104670c2e1a2e5360f9/53e5b1ca6abb8184-1c/s640x960/8ad786b52128a37a1f74248b5f817a3c062548d1.jpg" class="bbCodeImage LbImage" alt="[​IMG]" data-url="https://64.media.tumblr.com/e2d87a9b5e872104670c2e1a2e5360f9/53e5b1ca6abb8184-1c/s640x960/8ad786b52128a37a1f74248b5f817a3c062548d1.jpg" style=""> <br>
<div class="bbCodeBlock bbCodeQuote">
<aside>
<blockquote class="quoteContainer"><div class="quote">The Cheetah Girls</div><div class="quoteExpand">Click to expand...</div></blockquote>
</aside>
</div><img src="https://64.media.tumblr.com/8013bcbeab468157055839f3d380e779/d26825b55ff478ab-7c/s640x960/1a53fabdbc501a099894495fc2d7476fcf54ee99.jpg" class="bbCodeImage LbImage" alt="[​IMG]" data-url="https://64.media.tumblr.com/8013bcbeab468157055839f3d380e779/d26825b55ff478ab-7c/s640x960/1a53fabdbc501a099894495fc2d7476fcf54ee99.jpg" style=""> <br>
<div class="bbCodeBlock bbCodeQuote">
<aside>
<blockquote class="quoteContainer"><div class="quote">The Cheetah Girls 2</div><div class="quoteExpand">Click to expand...</div></blockquote>
</aside>
</div><img src="https://64.media.tumblr.com/0e6b5b728b30667240da91c4e5ed53a4/53e5b1ca6abb8184-eb/s250x400/fae250b78c98ffa9e2353e87e617378299990dea.jpg" class="bbCodeImage LbImage" alt="[​IMG]" data-url="https://64.media.tumblr.com/0e6b5b728b30667240da91c4e5ed53a4/53e5b1ca6abb8184-eb/s250x400/fae250b78c98ffa9e2353e87e617378299990dea.jpg" style=""> <br>
<br>
<div class="bbCodeBlock bbCodeQuote">
<aside>
<blockquote class="quoteContainer"><div class="quote">Cheetah-licious Christmas</div><div class="quoteExpand">Click to expand...</div></blockquote>
</aside>
</div><img src="https://64.media.tumblr.com/cf44aec3c2aaa4ff3f0afb653d48fcfe/53e5b1ca6abb8184-3d/s400x600/86abf537efeee47957bed6a08bc80144a51e073e.jpg" class="bbCodeImage LbImage" alt="[​IMG]" data-url="https://64.media.tumblr.com/cf44aec3c2aaa4ff3f0afb653d48fcfe/53e5b1ca6abb8184-3d/s400x600/86abf537efeee47957bed6a08bc80144a51e073e.jpg" style=""> <img src="https://64.media.tumblr.com/65cc4e73b05bbc9b6730345be97668d4/53e5b1ca6abb8184-a0/s400x600/a4c0ed8c497736542a77fd04ea78d2a66a439c1a.jpg" class="bbCodeImage LbImage" alt="[​IMG]" data-url="https://64.media.tumblr.com/65cc4e73b05bbc9b6730345be97668d4/53e5b1ca6abb8184-a0/s400x600/a4c0ed8c497736542a77fd04ea78d2a66a439c1a.jpg" style=""> <img src="https://64.media.tumblr.com/4fcf81a0c59f7be717a4e4cbbfa9e1df/53e5b1ca6abb8184-da/s250x400/6f16e3c2d58c1d037f2662a55a634d0233282a6a.jpg" class="bbCodeImage LbImage" alt="[​IMG]" data-url="https://64.media.tumblr.com/4fcf81a0c59f7be717a4e4cbbfa9e1df/53e5b1ca6abb8184-da/s250x400/6f16e3c2d58c1d037f2662a55a634d0233282a6a.jpg" style=""> <img src="https://64.media.tumblr.com/e6f08ea3a52a670c88e5873861c402cb/53e5b1ca6abb8184-5d/s250x400/2844ebf75e1ba59c3008c6396f58d13b972fe213.jpg" class="bbCodeImage LbImage" alt="[​IMG]" data-url="https://64.media.tumblr.com/e6f08ea3a52a670c88e5873861c402cb/53e5b1ca6abb8184-5d/s250x400/2844ebf75e1ba59c3008c6396f58d13b972fe213.jpg" style=""> <img src="https://64.media.tumblr.com/f934be5684df32b2cda37a156e305670/53e5b1ca6abb8184-c4/s250x400/30ecb186775be9b08117a806dab9427670a2fb22.pnj" class="bbCodeImage LbImage" alt="[​IMG]" data-url="https://64.media.tumblr.com/f934be5684df32b2cda37a156e305670/53e5b1ca6abb8184-c4/s250x400/30ecb186775be9b08117a806dab9427670a2fb22.pnj" style=""> <br>
<div class="bbCodeBlock bbCodeQuote">
<aside>
<blockquote class="quoteContainer"><div class="quote">TCG / TCG: Limited Edition Deluxe / TCG [Spanish Edition] / TCG [Special Edition] / TCG (EP)</div><div class="quoteExpand">Click to expand...</div></blockquote>
</aside>
</div><img src="https://64.media.tumblr.com/b1d543915163d3ea8ae9a5fd08648536/53e5b1ca6abb8184-d3/s250x400/d36a662b8be0a694b389ec4f9610e336abf6c295.jpg" class="bbCodeImage LbImage" alt="[​IMG]" data-url="https://64.media.tumblr.com/b1d543915163d3ea8ae9a5fd08648536/53e5b1ca6abb8184-d3/s250x400/d36a662b8be0a694b389ec4f9610e336abf6c295.jpg" style=""> <br>
<div class="bbCodeBlock bbCodeQuote">
<aside>
<blockquote class="quoteContainer"><div class="quote">In Concert: The Party's Just Begun Tour</div><div class="quoteExpand">Click to expand...</div></blockquote>
</aside>
</div><img src="https://64.media.tumblr.com/5e7b0a1c53e00323c6663f54ecb2237d/53e5b1ca6abb8184-0e/s250x400/fee33842e778e2029dbbac70876ab77b9e108895.jpg" class="bbCodeImage LbImage" alt="[​IMG]" data-url="https://64.media.tumblr.com/5e7b0a1c53e00323c6663f54ecb2237d/53e5b1ca6abb8184-0e/s250x400/fee33842e778e2029dbbac70876ab77b9e108895.jpg" style=""> <img src="https://64.media.tumblr.com/ddd69c1df76a118afc7556b7c8eb7304/53e5b1ca6abb8184-86/s250x400/1f4d1d272597eb92547b7bab853ab86c91cc3348.jpg" class="bbCodeImage LbImage" alt="[​IMG]" data-url="https://64.media.tumblr.com/ddd69c1df76a118afc7556b7c8eb7304/53e5b1ca6abb8184-86/s250x400/1f4d1d272597eb92547b7bab853ab86c91cc3348.jpg" style=""> <br>
<div class="bbCodeBlock bbCodeQuote">
<aside>
<blockquote class="quoteContainer"><div class="quote">One World / One World [Disneymania Edition]</div><div class="quoteExpand">Click to expand...</div></blockquote>
</aside>
</div><img src="https://64.media.tumblr.com/96f76f11428bbdd7b5b628ad0d5342cd/53e5b1ca6abb8184-e0/s250x400/c780d99546d9fc7587ebfc8613b9e2acbb8436c2.jpg" class="bbCodeImage LbImage" alt="[​IMG]" data-url="https://64.media.tumblr.com/96f76f11428bbdd7b5b628ad0d5342cd/53e5b1ca6abb8184-e0/s250x400/c780d99546d9fc7587ebfc8613b9e2acbb8436c2.jpg" style=""> <br>
<div class="bbCodeBlock bbCodeQuote">
<aside>
<blockquote class="quoteContainer"><div class="quote">WAL*MART SOUNDCHECK</div><div class="quoteExpand">Click to expand...</div></blockquote>
</aside>
</div><img src="https://64.media.tumblr.com/834be1b415a6cdb6009dca4c17803795/53e5b1ca6abb8184-75/s250x400/49076e4e3dc0f0a5d4c7a3383e2296e67e8b5481.jpg" class="bbCodeImage LbImage" alt="[​IMG]" data-url="https://64.media.tumblr.com/834be1b415a6cdb6009dca4c17803795/53e5b1ca6abb8184-75/s250x400/49076e4e3dc0f0a5d4c7a3383e2296e67e8b5481.jpg" style=""> <br>
<div class="bbCodeBlock bbCodeQuote">
<aside>
<blockquote class="quoteContainer"><div class="quote">Cheetah</div><div class="quoteExpand">Click to expand...</div></blockquote>
</aside>
</div>
<div class="bbCodeBlock bbCodeVfcHH HiddenContent">
<div class="attribution type">Hidden Content:</div>
<blockquote>You must either reply or click 'Like' to see the hidden information contained here.</blockquote>
</div>
<div class="messageTextEndMarker">&nbsp;</div>
</blockquote>
</article>]]></description>
                <author><![CDATA[1505donisbruno]]></author>
                </item>

                
                <item>
                <title><![CDATA[【SD】PACK - Pack Emo Rock Brasil - Asterisco Zero / Emoponto / Carbona (DVDRip/Promo)]]></title>
                <link><![CDATA[https://sharemania.us/threads/pack-emo-rock-brasil-asterisco-zero-emoponto-carbona-dvdrip-promo.220068/]]></link>
                <description><![CDATA[<article>
<blockquote class="messageText SelectQuoteContainer ugc baseHtml">
<b>Asterisco Zero - Seja Como For (2005)</b><br>
<br>
<img src="https://i.imgur.com/PcuXVb0.jpeg" class="bbCodeImage LbImage" alt="[​IMG]" data-url="https://i.imgur.com/PcuXVb0.jpeg" style=""><br>
<br>
<div class="ToggleTriggerAnchor bbCodeSpoilerContainer">
<button type="button" class="button bbCodeSpoilerButton ToggleTrigger Tooltip JsOnly" data-target="> .SpoilerTarget"><span>Spoiler</span></button>
<div class="SpoilerTarget bbCodeSpoilerText">Format : MPEG-PS<br>
File size : 134 MiB<br>
Duration : 3 min 25 s<br>
Overall bit rate mode : Variable<br>
Overall bit rate : 5 483 kb/s<br>
Writing library : (dvd5: Oct 19 2015)<br>
<br>
Video<br>
ID : 224 (0xE0)<br>
Format : MPEG Video<br>
Format version : Version 2<br>
Format profile : Main@Main<br>
Format settings : CustomMatrix / BVOP<br>
Format settings, BVOP : Yes<br>
Format settings, Matrix : Custom<br>
Format settings, GOP : M=3, N=15<br>
Format settings, picture structure : Frame<br>
Duration : 3 min 25 s<br>
Bit rate mode : Variable<br>
Bit rate : 4 926 kb/s<br>
Maximum bit rate : 7 000 kb/s<br>
Width : 720 pixels<br>
Height : 480 pixels<br>
Display aspect ratio : 4:3<br>
Frame rate : 29.970 (30000/1001) FPS<br>
Standard : NTSC<br>
Color space : YUV<br>
Chroma subsampling : 4:2:0<br>
Bit depth : 8 bits<br>
Scan type : Interlaced<br>
Scan order : Bottom Field First<br>
Compression mode : Lossy<br>
Bits/(Pixel*Frame) : 0.476<br>
Time code of first frame : 00:00:00:00<br>
Time code source : Group of pictures header<br>
GOP, Open/Closed : Closed<br>
Stream size : 121 MiB (90%)<br>
Writing library : (dvd5: Oct 19 2015)<br>
Color primaries : BT.601 NTSC<br>
Transfer characteristics : BT.601<br>
Matrix coefficients : BT.601<br>
<br>
Audio<br>
ID : 189 (0xBD)-128 (0x80)<br>
Format : AC-3<br>
Format/Info : Audio Coding 3<br>
Commercial name : Dolby Digital<br>
Muxing mode : DVD-Video<br>
Duration : 3 min 25 s<br>
Bit rate mode : Constant<br>
Bit rate : 448 kb/s<br>
Channel(s) : 2 channels<br>
Channel layout : L R<br>
Sampling rate : 48.0 kHz<br>
Frame rate : 31.250 FPS (1536 SPF)<br>
Bit depth : 16 bits<br>
Compression mode : Lossy<br>
Stream size : 11.0 MiB (8%)<br>
Service kind : Complete Main</div>
</div><br>
<div class="bbCodeBlock bbCodeVfcHH HiddenContent">
<div class="attribution type">Hidden Content:</div>
<blockquote>You must reply before you can see the hidden data contained here.</blockquote>
</div><br>
<br>
<b>Carbona - Fliperama (2004)</b><br>
<br>
<img src="https://i.imgur.com/ubvYSNa.jpeg" class="bbCodeImage LbImage" alt="[​IMG]" data-url="https://i.imgur.com/ubvYSNa.jpeg" style=""><br>
<br>
<div class="ToggleTriggerAnchor bbCodeSpoilerContainer">
<button type="button" class="button bbCodeSpoilerButton ToggleTrigger Tooltip JsOnly" data-target="> .SpoilerTarget"><span>Spoiler</span></button>
<div class="SpoilerTarget bbCodeSpoilerText">Format : MPEG-PS<br>
File size : 120 MiB<br>
Duration : 2 min 23 s<br>
Overall bit rate mode : Variable<br>
Overall bit rate : 7 008 kb/s<br>
Writing library : (dvd5: Oct 19 2015)<br>
<br>
Video<br>
ID : 224 (0xE0)<br>
Format : MPEG Video<br>
Format version : Version 2<br>
Format profile : Main@Main<br>
Format settings : CustomMatrix / BVOP<br>
Format settings, BVOP : Yes<br>
Format settings, Matrix : Custom<br>
Format settings, GOP : Variable<br>
Format settings, picture structure : Frame<br>
Duration : 2 min 23 s<br>
Bit rate mode : Variable<br>
Bit rate : 6 421 kb/s<br>
Maximum bit rate : 7 000 kb/s<br>
Width : 720 pixels<br>
Height : 480 pixels<br>
Display aspect ratio : 4:3<br>
Frame rate : 29.970 (30000/1001) FPS<br>
Standard : NTSC<br>
Color space : YUV<br>
Chroma subsampling : 4:2:0<br>
Bit depth : 8 bits<br>
Scan type : Interlaced<br>
Scan order : Bottom Field First<br>
Compression mode : Lossy<br>
Bits/(Pixel*Frame) : 0.620<br>
Time code of first frame : 00:00:00:00<br>
Time code source : Group of pictures header<br>
GOP, Open/Closed : Closed<br>
Stream size : 110 MiB (92%)<br>
Writing library : (dvd5: Oct 19 2015)<br>
Color primaries : BT.601 NTSC<br>
Transfer characteristics : BT.601<br>
Matrix coefficients : BT.601<br>
<br>
Audio<br>
ID : 189 (0xBD)-128 (0x80)<br>
Format : AC-3<br>
Format/Info : Audio Coding 3<br>
Commercial name : Dolby Digital<br>
Muxing mode : DVD-Video<br>
Duration : 2 min 23 s<br>
Bit rate mode : Constant<br>
Bit rate : 448 kb/s<br>
Channel(s) : 2 channels<br>
Channel layout : L R<br>
Sampling rate : 48.0 kHz<br>
Frame rate : 31.250 FPS (1536 SPF)<br>
Bit depth : 16 bits<br>
Compression mode : Lossy<br>
Stream size : 7.68 MiB (6%)<br>
Service kind : Complete Main</div>
</div><br>
<div class="bbCodeBlock bbCodeVfcHH HiddenContent">
<div class="attribution type">Hidden Content:</div>
<blockquote>You must reply before you can see the hidden data contained here.</blockquote>
</div><br>
<br>
<b>Emoponto - Rádio (2005)</b><br>
<br>
<img src="https://i.imgur.com/Ds1jNPL.jpeg" class="bbCodeImage LbImage" alt="[​IMG]" data-url="https://i.imgur.com/Ds1jNPL.jpeg" style=""><br>
<br>
<div class="ToggleTriggerAnchor bbCodeSpoilerContainer">
<button type="button" class="button bbCodeSpoilerButton ToggleTrigger Tooltip JsOnly" data-target="> .SpoilerTarget"><span>Spoiler</span></button>
<div class="SpoilerTarget bbCodeSpoilerText">Format : MPEG-PS<br>
File size : 159 MiB<br>
Duration : 3 min 0 s<br>
Overall bit rate mode : Variable<br>
Overall bit rate : 7 388 kb/s<br>
Writing library : (dvd5: Oct 19 2015)<br>
<br>
Video<br>
ID : 224 (0xE0)<br>
Format : MPEG Video<br>
Format version : Version 2<br>
Format profile : Main@Main<br>
Format settings : CustomMatrix / BVOP<br>
Format settings, BVOP : Yes<br>
Format settings, Matrix : Custom<br>
Format settings, GOP : M=3, N=15<br>
Format settings, picture structure : Frame<br>
Duration : 3 min 0 s<br>
Bit rate mode : Variable<br>
Bit rate : 6 793 kb/s<br>
Maximum bit rate : 7 000 kb/s<br>
Width : 720 pixels<br>
Height : 480 pixels<br>
Display aspect ratio : 4:3<br>
Frame rate : 29.970 (30000/1001) FPS<br>
Standard : NTSC<br>
Color space : YUV<br>
Chroma subsampling : 4:2:0<br>
Bit depth : 8 bits<br>
Scan type : Interlaced<br>
Scan order : Bottom Field First<br>
Compression mode : Lossy<br>
Bits/(Pixel*Frame) : 0.656<br>
Time code of first frame : 00:00:00:00<br>
Time code source : Group of pictures header<br>
GOP, Open/Closed : Closed<br>
Stream size : 146 MiB (92%)<br>
Writing library : (dvd5: Oct 19 2015)<br>
Color primaries : BT.601 NTSC<br>
Transfer characteristics : BT.601<br>
Matrix coefficients : BT.601<br>
<br>
Audio<br>
ID : 189 (0xBD)-128 (0x80)<br>
Format : AC-3<br>
Format/Info : Audio Coding 3<br>
Commercial name : Dolby Digital<br>
Muxing mode : DVD-Video<br>
Duration : 3 min 0 s<br>
Bit rate mode : Constant<br>
Bit rate : 448 kb/s<br>
Channel(s) : 2 channels<br>
Channel layout : L R<br>
Sampling rate : 48.0 kHz<br>
Frame rate : 31.250 FPS (1536 SPF)<br>
Bit depth : 16 bits<br>
Compression mode : Lossy<br>
Stream size : 9.65 MiB (6%)<br>
Service kind : Complete MainFormat : MPEG-PS<br>
File size : 159 MiB<br>
Duration : 3 min 0 s<br>
Overall bit rate mode  : Variable<br>
Overall bit rate : 7 388 kb/s<br>
Writing library : (dvd5: Oct 19 2015)<br>
<br>
Video<br>
ID : 224 (0xE0)<br>
Format : MPEG Video<br>
Format version : Version 2<br>
Format profile : Main@Main<br>
Format settings : CustomMatrix / BVOP<br>
Format settings, BVOP : Yes<br>
Format settings, Matrix : Custom<br>
Format settings, GOP : M=3, N=15<br>
Format settings, picture structure : Frame<br>
Duration : 3 min 0 s<br>
Bit rate mode : Variable<br>
Bit rate : 6 793 kb/s<br>
Maximum bit rate : 7 000 kb/s<br>
Width : 720 pixels<br>
Height : 480 pixels<br>
Display aspect ratio : 4:3<br>
Frame rate : 29.970 (30000/1001) FPS<br>
Standard : NTSC<br>
Color space : YUV<br>
Chroma subsampling : 4:2:0<br>
Bit depth : 8 bits<br>
Scan type : Interlaced<br>
Scan order : Bottom Field First<br>
Compression mode : Lossy<br>
Bits/(Pixel*Frame) : 0.656<br>
Time code of first frame : 00:00:00:00<br>
Time code source : Group of pictures header<br>
GOP, Open/Closed : Closed<br>
Stream size : 146 MiB (92%)<br>
Writing library : (dvd5: Oct 19 2015)<br>
Color primaries : BT.601 NTSC<br>
Transfer characteristics : BT.601<br>
Matrix coefficients : BT.601<br>
<br>
Audio<br>
ID : 189 (0xBD)-128 (0x80)<br>
Format : AC-3<br>
Format/Info : Audio Coding 3<br>
Commercial name : Dolby Digital<br>
Muxing mode : DVD-Video<br>
Duration : 3 min 0 s<br>
Bit rate mode : Constant<br>
Bit rate : 448 kb/s<br>
Channel(s) : 2 channels<br>
Channel layout : L R<br>
Sampling rate : 48.0 kHz<br>
Frame rate : 31.250 FPS (1536 SPF)<br>
Bit depth : 16 bits<br>
Compression mode : Lossy<br>
Stream size : 9.65 MiB (6%)<br>
Service kind : Complete Main</div>
</div><br>
<div class="bbCodeBlock bbCodeVfcHH HiddenContent">
<div class="attribution type">Hidden Content:</div>
<blockquote>You must reply before you can see the hidden data contained here.</blockquote>
</div>
<div class="messageTextEndMarker">&nbsp;</div>
</blockquote>
</article>]]></description>
                <author><![CDATA[Ralfer]]></author>
                </item>

                </channel></rss>